<?xml version="1.0" encoding="utf-8"?>
<!-- Generator: Adobe Illustrator 25.0.0, SVG Export Plug-In . SVG Version: 6.00 Build 0)  -->
<svg version="1.1" xmlns="http://www.w3.org/2000/svg" xmlns:xlink="http://www.w3.org/1999/xlink" x="0px" y="0px"
	 viewBox="0 0 100 100" style="enable-background:new 0 0 100 100;" xml:space="preserve">
<style type="text/css">
	.st0{fill:#FFFFFF;stroke:#000000;stroke-width:0.25;stroke-miterlimit:10;}
	.st1{fill:none;stroke:#000000;stroke-width:0.25;stroke-linecap:round;stroke-linejoin:round;}
	.st2{fill:none;stroke:#000000;stroke-width:0.25;stroke-miterlimit:10;}
	.st3{stroke:#000000;stroke-width:0.25;stroke-miterlimit:10;}
	.st4{fill:#EC2426;}
	.st5{fill:#ED2024;}
	.st6{fill:#640D0D;}	
	.st7{fill:#631011;}
	.st8{fill:#B41F24;}
	.st9{fill:#B42025;}
	.st10{fill:#640D0D;stroke:#631011;stroke-width:0.25;stroke-miterlimit:10;}
	.st11{fill:#B41F24;stroke:#B42025;stroke-width:0.25;stroke-miterlimit:10;}
</style>
<g id="Layer_1">
	<path class="st0" d="M-68.42,108.77"/>
	<path class="st1" d="M-55.33,22.13"/>
	<path class="st2" d="M-72.92,118.93"/>
</g>
<g id="Layer_2">
	<g>
		<path class="st3" d="M50,0"/>
		<path class="st3" d="M106.82,38.64"/>
		<g>
			<path d="M87.76,71.42c4.43-13.88,4.31-23.98,1.51-31.29C82.18,21.55,57.83,20.91,46.99,21.6c-2.96,0.19-5.26,2.64-5.26,5.6v4.32
				c0,3.07,2.48,5.56,5.55,5.61c15.05,0.24,23.86,3.24,28.87,7.26c11.14,8.95,3.4,22.97,3.4,22.97c3.36-10.61-0.91-16.17-7.64-18.97
				c-6.37-2.64-14.95-2.81-21.32-2.43c-2.47,0.14-4.67,1.24-6.25,2.92c-1.58,1.68-2.55,3.95-2.55,6.43c0,9.37,7.4,13.7,16.99,16.91
				c9.99,3.36,28.64,8.71,33.67,25.96c0,0-0.05-0.07-0.15-0.19c0-0.01,0-0.01-0.01-0.01c-2.3-2.92-29.65-35.74-73.65-4.62
				C0.67,105.86,2.74,91.51,6.71,79.2c0-0.01,0-0.01,0.01-0.02c2.33-7.2,5.31-13.7,5.31-13.7C5.62,94.65,17.46,89.9,25.62,83.94
				c4.29-3.12,6.82-8.11,6.89-13.42l0.51-42.37c0.17-13.53-12.49-8.96-16.88-6.97h-0.01c-0.82,0.38-1.36,0.66-1.45,0.71
				c0.35-0.34,0.72-0.68,1.08-0.98c1.71-1.46,0.2-4.2-1.95-3.55c-2.04,0.62-3.35,1.19-3.5,1.26c0.05-0.05,0.1-0.1,0.15-0.14
				c1.67-1.55,0.06-4.25-2.08-3.49c-2.98,1.06-4.93,2.06-5.16,2.18c0.65-0.66,1.33-1.27,2.04-1.86C22.17,1.21,55.42,2.64,55.42,2.64
				c36.36-0.02,43.01,19.79,41.36,38.15C95.36,56.64,87.76,71.42,87.76,71.42z"/>
			<path d="M92.77,98.84l-0.42-0.59c0,0-0.04-0.06-0.12-0.15h0l-0.04-0.05c-1.34-1.7-8.64-10.4-21.13-15.04
				c-16.37-6.07-33.98-2.55-52.35,10.44c-6.37,4.43-10.75,5.83-13.02,4.15c-2.7-2-2.4-8.2,0.89-18.43v-0.03l0.02-0.03
				c2.3-7.12,5.28-13.63,5.31-13.69l0.49-1.06l-0.25,1.14c-2.74,12.45-2.41,19.89,0.98,22.1c3.17,2.07,8.5-0.91,12.41-3.76
				c4.21-3.06,6.77-8.04,6.84-13.32l0.51-42.37c0.05-3.96-1.01-6.68-3.16-8.09c-4-2.62-10.81-0.01-13.55,1.23l-0.03,0.01
				c-0.78,0.36-1.32,0.64-1.42,0.69l-0.83,0.47l0.68-0.66c0.39-0.38,0.75-0.71,1.09-0.99c0.89-0.76,0.79-1.77,0.45-2.41
				c-0.35-0.64-1.16-1.27-2.28-0.93c-1.91,0.58-3.23,1.14-3.48,1.25l-0.64,0.3l0.5-0.5c0.05-0.05,0.11-0.11,0.16-0.15
				c0.81-0.75,0.76-1.78,0.35-2.46c-0.38-0.62-1.21-1.21-2.31-0.81c-2.98,1.06-4.93,2.06-5.14,2.17l-0.7,0.37l0.56-0.57
				c0.61-0.61,1.28-1.23,2.05-1.87C21.93,1.25,55.09,2.5,55.43,2.52c0.02,0,0.04,0,0.05,0c15.81,0,27.29,3.79,34.13,11.26
				c5.88,6.42,8.33,15.52,7.3,27.02c-1.41,15.69-8.96,30.53-9.03,30.68l-0.23-0.1c4.06-12.72,4.57-23.22,1.51-31.21
				C82.05,21.55,57.31,21.07,47,21.72c-2.88,0.19-5.14,2.59-5.14,5.48v4.32c0,2.98,2.43,5.44,5.43,5.48
				c13.45,0.21,23.19,2.67,28.95,7.29c11.09,8.91,3.51,22.99,3.43,23.13l-0.23-0.1c2.91-9.19,0.36-15.52-7.57-18.82
				c-6.43-2.67-15.12-2.79-21.27-2.42c-2.35,0.13-4.54,1.16-6.17,2.88c-1.62,1.73-2.52,3.98-2.52,6.34
				c0,9.78,8.12,13.85,16.91,16.79c0.51,0.17,1.04,0.35,1.6,0.53c10.23,3.4,27.36,9.08,32.15,25.51L92.77,98.84z M6.83,79.25
				c-3.22,9.98-3.56,16.26-0.98,18.16c2.17,1.61,6.45,0.21,12.73-4.15c10.09-7.14,20.12-11.46,29.8-12.84
				c7.85-1.12,15.51-0.32,22.78,2.37c11.93,4.42,19.15,12.54,21,14.81c-5-15.83-21.75-21.39-31.8-24.73
				c-0.55-0.18-1.09-0.36-1.6-0.53c-8.87-2.97-17.08-7.09-17.08-17.03c0-2.43,0.92-4.74,2.58-6.52c1.67-1.77,3.92-2.82,6.33-2.96
				c6.18-0.37,14.9-0.24,21.38,2.44c7.61,3.17,10.35,9.07,8.16,17.56c1.59-3.81,4.79-14.25-4.05-21.35
				c-5.72-4.59-15.4-7.02-28.79-7.23c-3.13-0.05-5.67-2.62-5.67-5.73V27.2c0-3.02,2.36-5.53,5.38-5.72
				c10.36-0.66,35.24-0.17,42.4,18.61c2.95,7.7,2.61,17.7-1.01,29.76c1.94-4.17,7.14-16.34,8.28-29.07
				c1.03-11.44-1.41-20.46-7.23-26.83C82.64,6.53,71.22,2.77,55.47,2.77c-0.02,0-0.04,0-0.05,0C55.08,2.75,22.02,1.5,5.34,15.41
				c-0.54,0.45-1.02,0.88-1.48,1.31c0.85-0.41,2.42-1.11,4.47-1.84c1.17-0.42,2.15,0.16,2.61,0.92c0.41,0.68,0.5,1.67-0.12,2.48
				c0.61-0.24,1.65-0.63,2.95-1.03c1.19-0.36,2.15,0.27,2.57,1.05c0.42,0.78,0.43,1.92-0.5,2.72c-0.14,0.12-0.29,0.25-0.44,0.38
				c0.2-0.1,0.42-0.2,0.68-0.32l0.04-0.01c2.79-1.26,9.67-3.88,13.76-1.2c2.22,1.45,3.32,4.24,3.27,8.3l-0.51,42.37
				c-0.07,5.36-2.67,10.41-6.94,13.52c-3.98,2.9-9.41,5.92-12.7,3.77c-3.37-2.2-3.82-9.32-1.34-21.18
				c-0.94,2.16-3.07,7.2-4.82,12.59L6.83,79.25z"/>
		</g>
		<path class="st3" d="M-11.6,47.4"/>
		<g>
			<path class="st4" d="M16.14,21.18h-0.01c-0.82,0.38-1.36,0.66-1.45,0.71c0.35-0.34,0.72-0.68,1.08-0.98
				c1.71-1.46,0.2-4.2-1.95-3.55c-2.04,0.62-3.35,1.19-3.5,1.26c0.05-0.05,0.1-0.1,0.15-0.14c1.67-1.55,0.06-4.25-2.08-3.49
				c-2.98,1.06-4.93,2.06-5.16,2.18c0.65-0.66,1.33-1.27,2.04-1.86c1.85-0.9,3.97-1.69,5.6-1.66c0,0,4.69-0.11,0.17,4.35
				c0.45-0.23,5.22-2.68,6.27-0.98C17.3,17.02,18.09,18.85,16.14,21.18z"/>
			<path class="st5" d="M13.91,22.46l0.68-0.66c0.39-0.38,0.75-0.71,1.09-0.99c0.89-0.76,0.79-1.77,0.45-2.41
				c-0.35-0.64-1.16-1.27-2.28-0.93c-1.91,0.58-3.23,1.14-3.48,1.25l-0.64,0.3l0.5-0.5c0.05-0.05,0.11-0.11,0.16-0.15
				c0.81-0.75,0.76-1.78,0.35-2.46c-0.38-0.62-1.21-1.21-2.31-0.81c-2.98,1.06-4.93,2.06-5.14,2.17l-0.7,0.37l0.56-0.57
				c0.61-0.61,1.28-1.23,2.05-1.87c1.6-0.78,3.84-1.69,5.59-1.69c0.03,0,0.06,0,0.09,0c0.07,0,1.75-0.03,2.17,0.95
				c0.3,0.72-0.17,1.76-1.41,3.09c1.67-0.79,4.9-2.05,5.79-0.62c0.04,0.09,0.81,1.94-1.17,4.31l-0.04,0.04h-0.04
				c-0.78,0.36-1.32,0.64-1.42,0.69L13.91,22.46z M14.45,17.14c0.87,0,1.55,0.53,1.9,1.15c0.42,0.78,0.43,1.92-0.5,2.72
				c-0.14,0.12-0.29,0.25-0.44,0.38c0.19-0.09,0.42-0.2,0.67-0.32c1.84-2.22,1.12-3.98,1.12-4c-0.93-1.5-5.24,0.6-6.09,1.04
				l-0.24,0.12c-0.01,0.01-0.02,0.02-0.03,0.04c0.61-0.24,1.65-0.63,2.95-1.03C14.01,17.17,14.23,17.14,14.45,17.14z M9.11,14.73
				c0.82,0,1.48,0.48,1.83,1.06c0.32,0.53,0.45,1.25,0.19,1.93c1.73-1.76,1.86-2.68,1.67-3.14c-0.35-0.83-1.92-0.79-1.94-0.8
				c-0.03,0-0.06,0-0.09,0c-1.71,0-3.91,0.89-5.46,1.65c-0.52,0.44-1,0.86-1.45,1.29c0.85-0.41,2.42-1.11,4.47-1.84
				C8.61,14.78,8.87,14.73,9.11,14.73z"/>
		</g>
		<g>
			<path class="st6" d="M79.73,67.24c-0.01,0.04-0.03,0.07-0.05,0.11c-0.01,0.01-0.01,0.01-0.01,0.01
				c3.36-10.61-0.91-16.17-7.64-18.97v-3.57l0.4-0.04l3.84-0.39C86.8,52.85,80.46,65.85,79.73,67.24z"/>
			<path class="st7" d="M79.41,67.8l0.14-0.48c2.91-9.19,0.36-15.52-7.57-18.82l-0.08-0.03v-3.77l4.4-0.45l0.04,0.03
				c10.61,8.53,4.29,21.49,3.5,22.99c-0.01,0.04-0.03,0.06-0.04,0.09l-0.04,0.06L79.41,67.8z M72.16,48.31
				c7.58,3.18,10.28,9.1,8.07,17.6c1.61-3.75,4.94-14.17-3.99-21.39l-4.08,0.41V48.31z"/>
		</g>
		<g>
			<path class="st8" d="M79.61,67.24c-0.01,0.04-0.03,0.07-0.05,0.11c-0.01,0.01-0.01,0.01-0.01,0.01
				c3.36-10.61-0.91-16.17-7.64-18.97v-3.57l0.4-0.04C76.28,46.73,85.35,52.95,79.61,67.24z"/>
			<path class="st9" d="M79.27,67.86l0.16-0.53c2.91-9.19,0.36-15.52-7.57-18.82l-0.08-0.03v-3.77l0.55-0.05l0.03,0.02
				c4.13,2.03,13.11,8.29,7.36,22.61c-0.01,0.04-0.03,0.07-0.04,0.1l-0.03,0.05L79.27,67.86z M72.04,48.31
				c7.17,3.01,9.98,8.48,8.38,16.26c3.63-12.25-4.31-17.77-8.13-19.66l-0.25,0.03V48.31z"/>
		</g>
		<g>
			<path class="st6" d="M96.78,40.79c-1.42,15.85-9.02,30.63-9.02,30.63c0.19-0.6,0.38-1.2,0.55-1.79
				c3.86-12.96,3.64-22.51,0.96-29.5l3.64-4.58L96.78,40.79z"/>
			<path class="st7" d="M87.87,71.48l-0.23-0.1c0.19-0.61,0.38-1.2,0.55-1.79c3.55-11.93,3.88-21.82,0.96-29.42l-0.03-0.07
				l0.04-0.06l3.74-4.71l4,5.41l0,0.05C95.5,56.49,87.95,71.33,87.87,71.48z M89.41,40.15c2.91,7.64,2.58,17.57-0.98,29.51
				c-0.02,0.06-0.04,0.13-0.06,0.19c1.93-4.16,7.13-16.31,8.28-29.03l-3.75-5.07L89.41,40.15z"/>
		</g>
		<g>
			<path class="st8" d="M87.76,71.42c3.86-12.96,4.19-24.3,1.51-31.29l3.64-4.58C92.91,35.55,96.57,50.68,87.76,71.42z"/>
			<path class="st9" d="M87.88,71.47l-0.24-0.08c3.75-12.57,4.3-23.95,1.51-31.21l-0.03-0.07l0.04-0.06l3.8-4.78l0.06,0.25
				C93.07,35.67,96.6,50.93,87.88,71.47z M89.41,40.15c2.61,6.89,2.27,17.41-0.91,29.12c7.04-17.97,4.75-31.44,4.34-33.44
				L89.41,40.15z"/>
		</g>
		<g>
			<path class="st8" d="M36.92,77.99c0.04-0.06,0.22-0.32,0.48-0.78c0.01-0.03,0.02-0.05,0.03-0.08c1.32-2.45,4.23-9.95-1.7-20.84
				c-0.02-0.04-0.04-0.08-0.06-0.12c0.7,0.67,9.84,11.75,8.62,20.74l-0.01,0.06c-0.03,0.18-0.06,0.36-0.09,0.54
				c0.13-0.37,1.19-3.4,1.57-5.58c0.08-0.43,0.13-0.82,0.15-1.16c0,0,0.64,3.59,3.18,3.73c0,0,21.79-1.2,38.92,18.06
				c1.44,1.62,2.85,3.39,4.2,5.32c-2.81-3.51-30.04-35.31-73.57-4.52C0.67,105.86,2.74,91.51,6.71,79.2
				c-0.89,6.53-1.75,16.7,1.74,16.07c0,0,4.46,1.03,20.37-10.66c0,0,6.07-4.09,6.17-20.1v-0.03C35,64.35,35,64.22,35,64.09"/>
			<path class="st9" d="M8.02,98.3c-0.93,0-1.71-0.23-2.33-0.69c-2.71-2-2.4-8.21,0.9-18.45l0.24,0.05
				c-1.18,8.66-1.02,14.19,0.44,15.59c0.32,0.31,0.7,0.42,1.15,0.34l0.03,0l0.03,0.01c0.04,0.02,4.64,0.84,20.27-10.64
				c0.06-0.04,6.02-4.26,6.12-20l0-0.04c0.01-0.13,0.01-0.25,0.01-0.38h0.25c0,0.13,0,0.27-0.01,0.4
				c-0.1,15.91-6.16,20.18-6.23,20.22C13.58,95.97,8.88,95.48,8.45,95.4c-0.52,0.09-0.98-0.05-1.35-0.41
				c-1.8-1.73-1.43-8.5-0.7-14.39c-2.82,9.2-3.02,15-0.56,16.82c2.17,1.61,6.45,0.21,12.73-4.15c38.55-27.27,64.35-5.55,71.79,2.33
				c-0.79-1.01-1.6-2-2.45-2.94c-8.83-9.92-18.91-14.29-25.81-16.21c-7.48-2.08-12.95-1.81-13.01-1.81
				c-1.94-0.11-2.8-2.07-3.14-3.14c-0.02,0.15-0.05,0.31-0.08,0.47c-0.36,2.05-1.3,4.8-1.57,5.6l-0.24-0.06l0.1-0.6
				c1.05-7.77-5.56-16.88-7.84-19.73c5.25,10.32,2.62,17.41,1.21,20.03l-0.02,0.06c-0.24,0.44-0.41,0.69-0.48,0.79l-0.23-0.11
				l0.02-0.03c0.06-0.09,0.23-0.34,0.46-0.75l0.02-0.06c1.44-2.68,4.14-10.02-1.69-20.74l-0.38-0.77l0.52,0.5
				c0.1,0.09,9.46,10.88,8.73,20.15c0.38-1.18,0.91-2.94,1.15-4.32c0.08-0.42,0.13-0.81,0.15-1.15l0.06-1.05l0.19,1.04
				c0.01,0.03,0.65,3.49,3.06,3.63c0.04,0,5.54-0.28,13.06,1.81c6.94,1.93,17.08,6.32,25.94,16.29c1.49,1.68,2.91,3.47,4.21,5.33
				l-0.2,0.15c-2.95-3.69-30.08-35.13-73.4-4.5C14.08,96.68,10.5,98.3,8.02,98.3z"/>
		</g>
		<g>
			<path class="st6" d="M44.42,76.05l-3.52-0.89c0,0,1.03-11.19-5.18-18.86c-0.02-0.04-0.04-0.08-0.06-0.12
				C36.37,56.84,45.64,67.06,44.42,76.05z"/>
			<path class="st7" d="M44.53,76.2l-3.75-0.96l0.01-0.11c0.01-0.11,0.95-11.23-5.15-18.77l-0.4-0.79l0.52,0.5
				c0.1,0.1,10.06,10.67,8.79,19.98L44.53,76.2z M41.04,75.06l3.28,0.83c0.84-6.83-4.37-14.33-7.12-17.75
				C41.58,65.15,41.12,73.99,41.04,75.06z"/>
		</g>
		<path class="st10" d="M46.45,67.36"/>
		<g>
			<path class="st6" d="M88.01,92.56c-7.25-7.05-21.22-17.47-40.56-17.47c0,0-1.65-0.01-1.69-3.16c0.08-0.43,0.13-0.82,0.15-1.16
				c0,0,0.71,3.41,3.25,3.55C49.16,74.32,70.88,73.3,88.01,92.56z"/>
			<path class="st7" d="M87.92,92.65c-6.7-6.51-20.86-17.43-40.47-17.43c-0.07,0-1.77-0.05-1.82-3.28c0.08-0.45,0.13-0.83,0.15-1.17
				l0.06-0.94l0.19,0.92c0.01,0.03,0.72,3.32,3.13,3.45c0.04,0,5.52-0.23,13.03,1.9c6.92,1.97,17.04,6.41,25.91,16.38L87.92,92.65z
				 M45.97,71.42c-0.02,0.17-0.05,0.35-0.09,0.54c0.04,2.95,1.51,3.01,1.57,3.01c17.37,0,30.49,8.53,37.95,15.03
				c-8.17-8.08-17.02-11.88-23.27-13.65c-7.47-2.12-12.92-1.9-12.97-1.9C47.24,74.34,46.32,72.43,45.97,71.42z"/>
		</g>
		<path class="st11" d="M107.85,74.64"/>
		<g>
			<path class="st6" d="M36.91,78l-1.24-3.05c0.5-2.93-0.17-7.59-0.68-10.44v-0.03C35,64.35,35,64.22,35,64.09
				C35,64.09,37.82,75.32,36.91,78z"/>
			<path class="st7" d="M36.92,78.36l-1.38-3.39l0.01-0.04c0.48-2.79-0.11-7.19-0.68-10.4l0-0.05c0.01-0.14,0.01-0.26,0.01-0.39
				v-1.01l0.25,0.98c0.12,0.46,2.82,11.3,1.91,13.98L36.92,78.36z M35.8,74.94l1.08,2.66c0.4-2.16-0.69-7.7-1.42-10.96
				C35.89,69.48,36.17,72.7,35.8,74.94z"/>
		</g>
		<g>
			<path class="st6" d="M17.2,20.81l-0.77,0.25c-0.82,0.38-1.06,0.36-1.15,0.41c0.35-0.34,1.03-0.77,1.39-1.07
				c1.71-1.46,0.2-4.2-1.95-3.55c-2.04,0.62-3.35,1.19-3.5,1.26c0.05-0.05,0.1-0.1,0.15-0.14c1.67-1.55,0.06-4.25-2.08-3.49
				c-2.98,1.06-4.93,2.06-5.16,2.18C4.79,16,5.47,15.39,6.18,14.8c1.85-0.9,3.97-1.69,5.6-1.66c0,0,4.69-0.11,0.17,4.35
				c0.45-0.23,5.22-2.68,6.27-0.98C18.22,16.51,19.15,18.48,17.2,20.81z"/>
			<path class="st7" d="M14.56,22.02l0.65-0.63c0.21-0.21,0.54-0.44,0.85-0.67c0.21-0.15,0.4-0.29,0.55-0.41
				c0.89-0.76,0.79-1.77,0.45-2.4c-0.35-0.64-1.16-1.27-2.28-0.93c-1.91,0.58-3.23,1.14-3.48,1.25l-0.65,0.3l0.5-0.5
				c0.05-0.05,0.11-0.11,0.16-0.15c0.81-0.75,0.76-1.78,0.35-2.46c-0.38-0.62-1.2-1.21-2.31-0.81c-3,1.07-4.93,2.06-5.14,2.17
				L3.5,17.14l0.56-0.57c0.6-0.61,1.27-1.22,2.05-1.87c1.63-0.8,3.91-1.72,5.68-1.69c0.07,0,1.75-0.03,2.17,0.95
				c0.3,0.72-0.17,1.76-1.41,3.09c1.67-0.79,4.9-2.05,5.79-0.62c0.05,0.1,0.95,2.08-1.03,4.44l-0.02,0.03l-0.8,0.26
				c-0.59,0.27-0.88,0.34-1.04,0.38c-0.04,0.01-0.08,0.02-0.09,0.02L14.56,22.02z M15.37,16.63c0.87,0,1.55,0.53,1.9,1.15
				c0.42,0.78,0.43,1.92-0.5,2.72c-0.15,0.13-0.35,0.27-0.56,0.42c-0.12,0.08-0.24,0.17-0.35,0.25c0.14-0.05,0.32-0.12,0.53-0.22
				l0.75-0.25c1.84-2.22,0.99-4.12,0.98-4.14c-0.93-1.5-5.24,0.6-6.09,1.03l-0.24,0.12c-0.01,0.01-0.02,0.02-0.03,0.04
				c0.61-0.24,1.65-0.63,2.95-1.03C14.93,16.66,15.16,16.63,15.37,16.63z M10.04,14.23c0.82,0,1.48,0.48,1.83,1.06
				c0.32,0.53,0.45,1.25,0.19,1.93c1.73-1.76,1.86-2.68,1.67-3.14c-0.35-0.83-1.92-0.8-1.94-0.8c-1.71-0.03-3.97,0.88-5.55,1.65
				c-0.52,0.44-1,0.86-1.45,1.29c0.85-0.41,2.41-1.11,4.47-1.84C9.53,14.27,9.79,14.23,10.04,14.23z"/>
		</g>
	</g>
</g>
</svg>
